<?xml version="1.0" standalone="no"?>
<!DOCTYPE svg PUBLIC "-//W3C//DTD SVG 20010904//EN"
 "http://www.w3.org/TR/2001/REC-SVG-20010904/DTD/svg10.dtd">
<svg version="1.0" xmlns="http://www.w3.org/2000/svg"
 width="512.000000pt" height="512.000000pt" viewBox="0 0 512.000000 512.000000"
 preserveAspectRatio="xMidYMid meet">
<metadata>
Created by potrace 1.14, written by Peter Selinger 2001-2017
</metadata>
<g transform="translate(0.000000,512.000000) scale(0.100000,-0.100000)"
fill="#000000" stroke="none">
<path d="M2498 3665 c-2 -1 -31 -5 -64 -8 -78 -8 -100 -13 -206 -48 -150 -50
-302 -148 -353 -229 -64 -102 -19 -250 91 -300 81 -37 153 -26 246 38 119 81
215 111 351 108 89 -1 109 -5 159 -29 74 -37 108 -85 115 -165 15 -161 -95
-252 -354 -292 -138 -21 -184 -66 -178 -174 3 -56 6 -83 20 -156 3 -14 7 -41
10 -60 9 -52 34 -99 69 -125 52 -39 140 -48 200 -20 54 26 84 75 102 168 4 24
-7 19 94 46 139 38 276 109 351 183 114 111 159 223 164 404 4 186 -45 328
-154 442 -134 141 -310 209 -566 217 -51 1 -95 2 -97 0z"/>
<path d="M3733 3419 c-69 -44 -104 -179 -77 -288 26 -101 37 -110 445 -382
416 -277 389 -252 323 -297 -174 -117 -649 -432 -651 -432 -5 0 -27 -18 -59
-49 -88 -82 -88 -295 -2 -380 47 -46 101 -51 157 -15 114 74 863 616 890 644
130 135 126 431 -7 559 -21 20 -49 44 -62 54 -14 9 -95 66 -180 126 -189 134
-270 191 -470 333 -223 158 -245 167 -307 127z"/>
<path d="M1268 3414 c-15 -8 -94 -61 -175 -119 -81 -58 -155 -109 -163 -115
-90 -63 -522 -370 -541 -385 -80 -65 -120 -162 -121 -295 -1 -105 12 -164 48
-227 38 -66 70 -95 214 -195 60 -41 242 -170 365 -257 363 -257 386 -272 429
-276 102 -10 177 156 139 306 -26 102 -34 109 -442 380 -209 139 -378 256
-375 260 2 4 165 114 361 245 197 130 375 253 395 272 74 70 94 219 44 324
-41 87 -110 119 -178 82z"/>
<path d="M2430 1976 c-125 -32 -198 -130 -195 -261 3 -159 134 -267 302 -252
142 14 238 121 235 263 -1 83 -25 136 -84 189 -70 63 -164 85 -258 61z"/>
</g>
</svg>
